<svg width="473" height="500" viewBox="0 0 473 500" fill="none" xmlns="http://www.w3.org/2000/svg">
<path d="M2.07397 497.205V1.39795H469.981V497.205H2.07397Z" stroke="#C6C6C6" stroke-width="4.15378"/>
<path d="M2.01465 497.098V468.861H141.51V497.098H2.01465Z" stroke="#C6C6C6" stroke-width="4.03504"/>
<path d="M2.00879 29.7475V1.68213H141.516V29.7475H2.00879Z" stroke="#C6C6C6" stroke-width="4.02298"/>
<path d="M142.28 468.921C185.838 451.157 223.124 420.773 249.373 381.653C275.623 342.532 289.643 296.452 289.643 249.301C289.643 202.15 275.623 156.07 249.373 116.95C223.124 77.8298 185.838 47.4461 142.28 29.6821" stroke="#C6C6C6" stroke-width="4.15378"/>
<path d="M2.07397 329.163H191.228V169.44H2.07397V329.163Z" stroke="#C6C6C6" stroke-width="4.15378"/>
<path d="M2.07397 309.198H191.228V189.405H2.07397V309.198Z" stroke="#C6C6C6" stroke-width="4.15378"/>
<path d="M191.228 309.198C207.066 309.192 222.254 302.879 233.451 291.647C244.648 280.415 250.939 265.183 250.939 249.301C250.939 233.42 244.648 218.188 233.451 206.956C222.254 195.724 207.066 189.411 191.228 189.405C183.382 189.402 175.612 190.95 168.362 193.958C161.113 196.967 154.525 201.379 148.976 206.941C143.427 212.503 139.025 219.107 136.022 226.375C133.019 233.643 131.473 241.434 131.473 249.301C131.473 257.169 133.019 264.959 136.022 272.228C139.025 279.496 143.427 286.1 148.976 291.662C154.525 297.224 161.113 301.636 168.362 304.645C175.612 307.653 183.382 309.2 191.228 309.198Z" stroke="#C6C6C6" stroke-width="4.15378"/>
<path d="M469.981 309.198C462.135 309.2 454.365 307.653 447.116 304.645C439.866 301.636 433.278 297.224 427.729 291.662C422.18 286.1 417.779 279.496 414.775 272.228C411.772 264.959 410.226 257.169 410.226 249.301C410.226 241.434 411.772 233.643 414.775 226.375C417.779 219.107 422.18 212.503 427.729 206.941C433.278 201.379 439.866 196.967 447.116 193.958C454.365 190.95 462.135 189.402 469.981 189.405V249.301V309.198Z" stroke="#C6C6C6" stroke-width="4.15378"/>
<path d="M469.981 269.267C464.7 269.267 459.636 267.163 455.902 263.419C452.168 259.675 450.07 254.596 450.07 249.301C450.07 244.006 452.168 238.928 455.902 235.184C459.636 231.439 464.7 229.336 469.981 229.336V249.301V269.267Z" stroke="#C6C6C6" stroke-width="4.15378"/>
<path d="M41.896 279.25V219.354" stroke="#C6C6C6" stroke-width="4.15378"/>
<path d="M41.896 249.301H46.8737" stroke="#C6C6C6" stroke-width="4.15378"/>
<path d="M54.3401 256.789C56.3204 256.789 58.2196 256 59.6198 254.596C61.0201 253.192 61.8067 251.287 61.8067 249.301C61.8067 247.316 61.0201 245.411 59.6198 244.007C58.2196 242.603 56.3204 241.814 54.3401 241.814C52.3599 241.814 50.4607 242.603 49.0605 244.007C47.6602 245.411 46.8735 247.316 46.8735 249.301C46.8735 251.287 47.6602 253.192 49.0605 254.596C50.4607 256 52.3599 256.789 54.3401 256.789Z" stroke="#C6C6C6" stroke-width="4.15378"/>
<path d="M280.827 496.865V467.022" stroke="#C6C6C6" stroke-width="4.14652" stroke-linecap="round"/>
<path d="M280.827 31.6878V1.73975" stroke="#C6C6C6" stroke-width="4.15367" stroke-linecap="round"/>
<path d="M2.07397 359.111H12.0294" stroke="#C6C6C6" stroke-width="4.15378"/>
<path d="M2.07397 139.492H12.0294" stroke="#C6C6C6" stroke-width="4.15378"/>
<path d="M71.7622 329.163V339.146" stroke="#C6C6C6" stroke-width="4.15378"/>
<path d="M81.7178 329.163V339.146" stroke="#C6C6C6" stroke-width="4.15378"/>
<path d="M111.584 329.163V339.146" stroke="#C6C6C6" stroke-width="4.15378"/>
<path d="M141.45 329.163V339.146" stroke="#C6C6C6" stroke-width="4.15378"/>
<path d="M71.7622 169.44V159.457" stroke="#C6C6C6" stroke-width="4.15378"/>
<path d="M81.7178 169.44V159.457" stroke="#C6C6C6" stroke-width="4.15378"/>
<path d="M111.584 169.44V159.457" stroke="#C6C6C6" stroke-width="4.15378"/>
<path d="M141.45 169.44V159.457" stroke="#C6C6C6" stroke-width="4.15378"/>
</svg>
