<svg width="476" height="506" viewBox="0 0 476 506" fill="none" xmlns="http://www.w3.org/2000/svg">
<path d="M3.06543 503V3H473V503H3.06543Z" stroke="#C6C6C6" stroke-width="4.15378"/>
<path d="M3.00586 502.892V474.417H143.105V502.892H3.00586Z" stroke="#C6C6C6" stroke-width="4.03504"/>
<path d="M3 31.5894V3.28662H143.112V31.5894H3Z" stroke="#C6C6C6" stroke-width="4.02298"/>
<path d="M143.879 474.476C187.626 456.562 225.073 425.922 251.436 386.471C277.8 347.019 291.881 300.55 291.881 253C291.881 205.45 277.8 158.981 251.436 119.529C225.073 80.0783 187.626 49.4377 143.879 31.5234" stroke="#C6C6C6" stroke-width="4.15378"/>
<path d="M3.06543 333.537H193.039V172.463H3.06543V333.537Z" stroke="#C6C6C6" stroke-width="4.15378"/>
<path d="M3.06543 313.403H193.039V192.597H3.06543V313.403Z" stroke="#C6C6C6" stroke-width="4.15378"/>
<path d="M193.039 313.403C208.946 313.397 224.199 307.03 235.445 295.703C246.691 284.376 253.009 269.016 253.009 253C253.009 236.984 246.691 221.624 235.445 210.297C224.199 198.969 208.946 192.603 193.039 192.597C185.159 192.594 177.355 194.154 170.074 197.189C162.793 200.223 156.177 204.672 150.604 210.281C145.031 215.89 140.61 222.55 137.594 229.88C134.578 237.209 133.025 245.066 133.025 253C133.025 260.934 134.578 268.79 137.594 276.12C140.61 283.45 145.031 290.11 150.604 295.719C156.177 301.328 162.793 305.777 170.074 308.811C177.355 311.845 185.159 313.405 193.039 313.403Z" stroke="#C6C6C6" stroke-width="4.15378"/>
<path d="M473 313.403C465.12 313.405 457.316 311.845 450.035 308.811C442.754 305.777 436.138 301.328 430.565 295.719C424.992 290.11 420.571 283.45 417.555 276.12C414.539 268.79 412.986 260.934 412.986 253C412.986 245.066 414.539 237.209 417.555 229.88C420.571 222.55 424.992 215.89 430.565 210.281C436.138 204.672 442.754 200.223 450.035 197.189C457.316 194.154 465.12 192.594 473 192.597V253V313.403Z" stroke="#C6C6C6" stroke-width="4.15378"/>
<path d="M473 273.134C467.696 273.134 462.61 271.013 458.86 267.237C455.11 263.461 453.003 258.34 453.003 253C453.003 247.66 455.11 242.539 458.86 238.763C462.61 234.987 467.696 232.866 473 232.866V253V273.134Z" stroke="#C6C6C6" stroke-width="4.15378"/>
<path d="M43.0601 283.202V222.799" stroke="#C6C6C6" stroke-width="4.15378"/>
<path d="M43.0601 253H48.0594" stroke="#C6C6C6" stroke-width="4.15378"/>
<path d="M55.558 260.55C57.5469 260.55 59.4543 259.755 60.8606 258.339C62.2669 256.923 63.057 255.003 63.057 253C63.057 250.998 62.2669 249.077 60.8606 247.661C59.4543 246.245 57.5469 245.45 55.558 245.45C53.5692 245.45 51.6618 246.245 50.2555 247.661C48.8491 249.077 48.0591 250.998 48.0591 253C48.0591 255.003 48.8491 256.923 50.2555 258.339C51.6618 259.755 53.5692 260.55 55.558 260.55Z" stroke="#C6C6C6" stroke-width="4.15378"/>
<path d="M283.027 502.657V472.562" stroke="#C6C6C6" stroke-width="4.14652" stroke-linecap="round"/>
<path d="M283.027 33.5461V3.34473" stroke="#C6C6C6" stroke-width="4.15367" stroke-linecap="round"/>
<path d="M3.06543 363.738H13.064" stroke="#C6C6C6" stroke-width="4.15378"/>
<path d="M3.06543 142.262H13.064" stroke="#C6C6C6" stroke-width="4.15378"/>
<path d="M73.0557 333.537V343.604" stroke="#C6C6C6" stroke-width="4.15378"/>
<path d="M83.0544 333.537V343.604" stroke="#C6C6C6" stroke-width="4.15378"/>
<path d="M113.05 333.537V343.604" stroke="#C6C6C6" stroke-width="4.15378"/>
<path d="M143.046 333.537V343.604" stroke="#C6C6C6" stroke-width="4.15378"/>
<path d="M73.0557 172.463V162.396" stroke="#C6C6C6" stroke-width="4.15378"/>
<path d="M83.0544 172.463V162.396" stroke="#C6C6C6" stroke-width="4.15378"/>
<path d="M113.05 172.463V162.396" stroke="#C6C6C6" stroke-width="4.15378"/>
<path d="M143.046 172.463V162.396" stroke="#C6C6C6" stroke-width="4.15378"/>
</svg>
